<svg width="27" height="26" viewBox="0 0 27 26" fill="none" xmlns="http://www.w3.org/2000/svg">
<path fill-rule="evenodd" clip-rule="evenodd" d="M14.8682 1.80452C14.6345 1.31626 14.1412 1.00552 13.5998 1.00552C13.0585 1.00552 12.5652 1.31626 12.3315 1.80452L9.31627 8.10243L2.59152 9.10973C2.06705 9.18829 1.63138 9.55522 1.46479 10.0587C1.29819 10.5622 1.42899 11.1165 1.80308 11.4924L6.69428 16.4072L5.53789 23.3574C5.44972 23.8874 5.67117 24.4212 6.10855 24.7332C6.54593 25.0451 7.12281 25.0806 7.59512 24.8246L13.5998 21.5704L19.6046 24.8246C20.0769 25.0806 20.6538 25.0451 21.0911 24.7332C21.5285 24.4212 21.75 23.8874 21.6618 23.3574L20.5054 16.4072L25.3966 11.4924C25.7707 11.1165 25.9015 10.5622 25.7349 10.0587C25.5683 9.55522 25.1326 9.18829 24.6082 9.10973L17.8834 8.10243L14.8682 1.80452ZM11.5308 9.98989L13.5998 5.66831L15.6688 9.98989C15.8703 10.4107 16.2675 10.7042 16.7289 10.7734L21.4417 11.4793L18.0031 14.9346C17.6837 15.2555 17.5383 15.7106 17.6127 16.1573L18.4152 20.9811L14.2699 18.7345C13.8519 18.508 13.3478 18.508 12.9298 18.7345L8.78444 20.9811L9.58702 16.1573C9.66134 15.7106 9.51602 15.2555 9.1966 14.9346L5.75795 11.4793L10.4708 10.7734C10.9322 10.7042 11.3293 10.4107 11.5308 9.98989Z" fill="#E7BEC6"/>
<path d="M14.8682 1.80452L15.3192 1.58861L15.3192 1.58861L14.8682 1.80452ZM12.3315 1.80452L11.8805 1.58861L11.8805 1.58861L12.3315 1.80452ZM9.31627 8.10243L9.39034 8.59691L9.65269 8.55761L9.76725 8.31834L9.31627 8.10243ZM2.59152 9.10973L2.66559 9.60422L2.66559 9.60422L2.59152 9.10973ZM1.46479 10.0587L0.990098 9.90162L0.990098 9.90162L1.46479 10.0587ZM1.80308 11.4924L1.44868 11.8451L1.44868 11.8451L1.80308 11.4924ZM6.69428 16.4072L7.1875 16.4893L7.22959 16.2363L7.04868 16.0545L6.69428 16.4072ZM5.53789 23.3574L5.04467 23.2754L5.04467 23.2754L5.53789 23.3574ZM6.10855 24.7332L6.39887 24.3261L6.39887 24.3261L6.10855 24.7332ZM7.59512 24.8246L7.83335 25.2642L7.83335 25.2642L7.59512 24.8246ZM13.5998 21.5704L13.8381 21.1308L13.5998 21.0017L13.3616 21.1308L13.5998 21.5704ZM19.6046 24.8246L19.8428 24.385L19.8428 24.385L19.6046 24.8246ZM21.0911 24.7332L20.8008 24.3261L20.8008 24.3261L21.0911 24.7332ZM21.6618 23.3574L22.155 23.2754L22.155 23.2754L21.6618 23.3574ZM20.5054 16.4072L20.151 16.0545L19.9701 16.2363L20.0122 16.4893L20.5054 16.4072ZM25.3966 11.4924L25.0422 11.1397L25.0422 11.1397L25.3966 11.4924ZM25.7349 10.0587L25.2602 10.2158L25.2602 10.2158L25.7349 10.0587ZM24.6082 9.10973L24.5341 9.60422L24.5341 9.60422L24.6082 9.10973ZM17.8834 8.10243L17.4324 8.31834L17.547 8.55761L17.8094 8.59691L17.8834 8.10243ZM13.5998 5.66831L14.0508 5.4524L13.5998 4.51043L13.1489 5.4524L13.5998 5.66831ZM11.5308 9.98989L11.9818 10.2058L11.9818 10.2058L11.5308 9.98989ZM15.6688 9.98989L16.1198 9.77398L16.1198 9.77398L15.6688 9.98989ZM16.7289 10.7734L16.6548 11.2679L16.6548 11.2679L16.7289 10.7734ZM21.4417 11.4793L21.7961 11.832L22.4935 11.1313L21.5158 10.9848L21.4417 11.4793ZM18.0031 14.9346L18.3575 15.2873L18.3575 15.2873L18.0031 14.9346ZM17.6127 16.1573L17.1194 16.2394L17.1194 16.2394L17.6127 16.1573ZM18.4152 20.9811L18.177 21.4207L19.0764 21.9081L18.9085 20.899L18.4152 20.9811ZM14.2699 18.7345L14.5081 18.2949L14.5081 18.2949L14.2699 18.7345ZM12.9298 18.7345L12.6916 18.2949L12.6916 18.2949L12.9298 18.7345ZM8.78444 20.9811L8.29122 20.899L8.12333 21.9081L9.02268 21.4207L8.78444 20.9811ZM9.58702 16.1573L10.0802 16.2394L10.0802 16.2394L9.58702 16.1573ZM9.1966 14.9346L8.8422 15.2873L8.8422 15.2873L9.1966 14.9346ZM5.75795 11.4793L5.68388 10.9848L4.70618 11.1313L5.40355 11.832L5.75795 11.4793ZM10.4708 10.7734L10.5448 11.2679L10.5448 11.2679L10.4708 10.7734ZM13.5998 1.50552C13.9487 1.50552 14.2666 1.70577 14.4172 2.02043L15.3192 1.58861C15.0023 0.92674 14.3337 0.505524 13.5998 0.505524V1.50552ZM12.7824 2.02043C12.9331 1.70577 13.251 1.50552 13.5998 1.50552V0.505524C12.866 0.505524 12.1974 0.92674 11.8805 1.58861L12.7824 2.02043ZM9.76725 8.31834L12.7824 2.02043L11.8805 1.58861L8.86529 7.88652L9.76725 8.31834ZM2.66559 9.60422L9.39034 8.59691L9.2422 7.60795L2.51745 8.61525L2.66559 9.60422ZM1.93947 10.2158C2.04684 9.89131 2.3276 9.65484 2.66559 9.60422L2.51745 8.61525C1.80651 8.72174 1.21593 9.21914 0.990098 9.90162L1.93947 10.2158ZM2.15749 11.1397C1.91641 10.8975 1.83211 10.5402 1.93947 10.2158L0.990098 9.90162C0.764264 10.5841 0.941581 11.3356 1.44868 11.8451L2.15749 11.1397ZM7.04868 16.0545L2.15749 11.1397L1.44868 11.8451L6.33988 16.7599L7.04868 16.0545ZM6.03111 23.4395L7.1875 16.4893L6.20106 16.3252L5.04467 23.2754L6.03111 23.4395ZM6.39887 24.3261C6.11701 24.1251 5.97429 23.781 6.03111 23.4395L5.04467 23.2754C4.92516 23.9937 5.22534 24.7174 5.81823 25.1402L6.39887 24.3261ZM7.35688 24.385C7.0525 24.55 6.68074 24.5271 6.39887 24.3261L5.81823 25.1402C6.41112 25.5631 7.19311 25.6112 7.83335 25.2642L7.35688 24.385ZM13.3616 21.1308L7.35688 24.385L7.83335 25.2642L13.8381 22.01L13.3616 21.1308ZM19.8428 24.385L13.8381 21.1308L13.3616 22.01L19.3663 25.2642L19.8428 24.385ZM20.8008 24.3261C20.5189 24.5271 20.1472 24.55 19.8428 24.385L19.3663 25.2642C20.0066 25.6112 20.7886 25.5631 21.3815 25.1402L20.8008 24.3261ZM21.1686 23.4395C21.2254 23.781 21.0827 24.1251 20.8008 24.3261L21.3815 25.1402C21.9743 24.7174 22.2745 23.9937 22.155 23.2754L21.1686 23.4395ZM20.0122 16.4893L21.1686 23.4395L22.155 23.2754L20.9986 16.3252L20.0122 16.4893ZM25.0422 11.1397L20.151 16.0545L20.8598 16.7599L25.751 11.8451L25.0422 11.1397ZM25.2602 10.2158C25.3676 10.5402 25.2833 10.8975 25.0422 11.1397L25.751 11.8451C26.2581 11.3356 26.4354 10.5841 26.2096 9.90162L25.2602 10.2158ZM24.5341 9.60422C24.8721 9.65484 25.1528 9.89131 25.2602 10.2158L26.2096 9.90162C25.9838 9.21914 25.3932 8.72174 24.6822 8.61525L24.5341 9.60422ZM17.8094 8.59691L24.5341 9.60422L24.6822 8.61525L17.9575 7.60795L17.8094 8.59691ZM14.4172 2.02043L17.4324 8.31834L18.3344 7.88652L15.3192 1.58861L14.4172 2.02043ZM13.1489 5.4524L11.0799 9.77398L11.9818 10.2058L14.0508 5.88423L13.1489 5.4524ZM16.1198 9.77398L14.0508 5.4524L13.1489 5.88423L15.2179 10.2058L16.1198 9.77398ZM16.803 10.2789C16.5056 10.2343 16.2497 10.0452 16.1198 9.77398L15.2179 10.2058C15.491 10.7763 16.0293 11.1742 16.6548 11.2679L16.803 10.2789ZM21.5158 10.9848L16.803 10.2789L16.6548 11.2679L21.3677 11.9738L21.5158 10.9848ZM18.3575 15.2873L21.7961 11.832L21.0873 11.1266L17.6487 14.5819L18.3575 15.2873ZM18.1059 16.0753C18.058 15.7874 18.1516 15.4941 18.3575 15.2873L17.6487 14.5819C17.2157 15.0169 17.0187 15.6339 17.1194 16.2394L18.1059 16.0753ZM18.9085 20.899L18.1059 16.0753L17.1194 16.2394L17.922 21.0631L18.9085 20.899ZM14.0316 19.1741L18.177 21.4207L18.6535 20.5415L14.5081 18.2949L14.0316 19.1741ZM13.168 19.1741C13.4374 19.0281 13.7623 19.0281 14.0316 19.1741L14.5081 18.2949C13.9415 17.9879 13.2582 17.9879 12.6916 18.2949L13.168 19.1741ZM9.02268 21.4207L13.168 19.1741L12.6916 18.2949L8.5462 20.5415L9.02268 21.4207ZM9.0938 16.0753L8.29122 20.899L9.27766 21.0631L10.0802 16.2394L9.0938 16.0753ZM8.8422 15.2873C9.04805 15.4941 9.1417 15.7874 9.0938 16.0753L10.0802 16.2394C10.181 15.6339 9.984 15.0169 9.55101 14.5819L8.8422 15.2873ZM5.40355 11.832L8.8422 15.2873L9.55101 14.5819L6.11235 11.1266L5.40355 11.832ZM10.3967 10.2789L5.68388 10.9848L5.83202 11.9738L10.5448 11.2679L10.3967 10.2789ZM11.0799 9.77398C10.95 10.0452 10.6941 10.2343 10.3967 10.2789L10.5448 11.2679C11.1704 11.1742 11.7087 10.7763 11.9818 10.2058L11.0799 9.77398Z" fill="black" fill-opacity="0.19"/>
</svg>
