<svg width="28" height="26" viewBox="0 0 28 26" fill="none" xmlns="http://www.w3.org/2000/svg">
<path fill-rule="evenodd" clip-rule="evenodd" d="M8.12529 16.1094L6.69118 24.25L14.2003 20.4065L21.7094 24.25L20.2753 16.1094L26.3503 10.3442L17.9549 9.15654L14.2003 1.75L10.4457 9.15654L2.05029 10.3442L8.12529 16.1094Z" fill="#E7BEC6"/>
<path d="M6.69118 24.25L6.19876 24.1633L6.02441 25.153L6.91899 24.6951L6.69118 24.25ZM8.12529 16.1094L8.61771 16.1962L8.66431 15.9316L8.46948 15.7467L8.12529 16.1094ZM14.2003 20.4065L14.4281 19.9615L14.2003 19.8449L13.9725 19.9615L14.2003 20.4065ZM21.7094 24.25L21.4816 24.6951L22.3762 25.153L22.2018 24.1633L21.7094 24.25ZM20.2753 16.1094L19.9311 15.7467L19.7363 15.9316L19.7829 16.1962L20.2753 16.1094ZM26.3503 10.3442L26.6945 10.7069L27.4455 9.9942L26.4203 9.84917L26.3503 10.3442ZM17.9549 9.15654L17.5089 9.38262L17.6267 9.6151L17.8848 9.65161L17.9549 9.15654ZM14.2003 1.75L14.6463 1.52393L14.2003 0.644167L13.7543 1.52393L14.2003 1.75ZM10.4457 9.15654L10.5158 9.65161L10.7739 9.6151L10.8917 9.38262L10.4457 9.15654ZM2.05029 10.3442L1.98026 9.84917L0.955087 9.9942L1.70611 10.7069L2.05029 10.3442ZM7.1836 24.3368L8.61771 16.1962L7.63288 16.0227L6.19876 24.1633L7.1836 24.3368ZM13.9725 19.9615L6.46337 23.8049L6.91899 24.6951L14.4281 20.8516L13.9725 19.9615ZM21.9372 23.8049L14.4281 19.9615L13.9725 20.8516L21.4816 24.6951L21.9372 23.8049ZM19.7829 16.1962L21.217 24.3368L22.2018 24.1633L20.7677 16.0227L19.7829 16.1962ZM26.0061 9.98156L19.9311 15.7467L20.6195 16.4721L26.6945 10.7069L26.0061 9.98156ZM17.8848 9.65161L26.2803 10.8393L26.4203 9.84917L18.0249 8.66147L17.8848 9.65161ZM13.7543 1.97607L17.5089 9.38262L18.4008 8.93047L14.6463 1.52393L13.7543 1.97607ZM10.8917 9.38262L14.6463 1.97607L13.7543 1.52393L9.99977 8.93047L10.8917 9.38262ZM2.12033 10.8393L10.5158 9.65161L10.3757 8.66147L1.98026 9.84917L2.12033 10.8393ZM8.46948 15.7467L2.39448 9.98156L1.70611 10.7069L7.78111 16.4721L8.46948 15.7467Z" fill="black" fill-opacity="0.4"/>
</svg>
